<mxfile host="app.diagrams.net" modified="2023-03-08T00:47:04.556Z" agent="5.0 (Windows)" etag="yCiQZE25gnR0kaBhjStK" version="21.0.2" type="github">
  <diagram name="Page-1" id="pLTpqQ-wPPEY7kV3n05Q">
    <mxGraphModel dx="628" dy="546" grid="1" gridSize="10" guides="1" tooltips="1" connect="1" arrows="1" fold="1" page="1" pageScale="1" pageWidth="850" pageHeight="1100" background="#363636" math="0" shadow="0">
      <root>
        <mxCell id="0" />
        <mxCell id="1" parent="0" />
        <mxCell id="N24Z4VymImt8orXv-Vid-75" value="steel boiler" style="rounded=0;whiteSpace=wrap;html=1;strokeColor=#FFFFFF;fontColor=#FFFFFF;fillColor=#182E3E;" vertex="1" parent="1">
          <mxGeometry x="20" y="190" width="80" height="60" as="geometry" />
        </mxCell>
        <mxCell id="N24Z4VymImt8orXv-Vid-76" value="Coke Oven" style="rounded=0;whiteSpace=wrap;html=1;strokeColor=#FFFFFF;fontColor=#FFFFFF;fillColor=#182E3E;" vertex="1" parent="1">
          <mxGeometry x="20" y="20" width="120" height="60" as="geometry" />
        </mxCell>
        <mxCell id="N24Z4VymImt8orXv-Vid-77" value="Coke Oven" style="rounded=0;whiteSpace=wrap;html=1;strokeColor=#FFFFFF;fontColor=#FFFFFF;fillColor=#182E3E;" vertex="1" parent="1">
          <mxGeometry x="160" y="20" width="120" height="60" as="geometry" />
        </mxCell>
        <mxCell id="N24Z4VymImt8orXv-Vid-78" value="EBF" style="shape=cube;whiteSpace=wrap;html=1;boundedLbl=1;backgroundOutline=1;darkOpacity=0.05;darkOpacity2=0.1;strokeColor=#FFFFFF;fontColor=#FFFFFF;fillColor=#182E3E;" vertex="1" parent="1">
          <mxGeometry x="543" y="20" width="120" height="80" as="geometry" />
        </mxCell>
        <mxCell id="N24Z4VymImt8orXv-Vid-79" value="&lt;div&gt;steam&lt;/div&gt;&lt;div&gt;tank&lt;br&gt;&lt;/div&gt;" style="rounded=0;whiteSpace=wrap;html=1;strokeColor=#FFFFFF;fontColor=#FFFFFF;fillColor=#182E3E;" vertex="1" parent="1">
          <mxGeometry x="460" y="20" width="40" height="60" as="geometry" />
        </mxCell>
        <mxCell id="N24Z4VymImt8orXv-Vid-80" value="lv" style="rounded=0;whiteSpace=wrap;html=1;strokeColor=#FFFFFF;fontColor=#FFFFFF;fillColor=#182E3E;" vertex="1" parent="1">
          <mxGeometry x="506" y="35" width="30" height="30" as="geometry" />
        </mxCell>
        <mxCell id="N24Z4VymImt8orXv-Vid-82" value="&lt;div&gt;mixer&lt;/div&gt;&lt;div&gt;(steel / lube)&lt;br&gt;&lt;/div&gt;" style="rounded=0;whiteSpace=wrap;html=1;strokeColor=#FFFFFF;fontColor=#FFFFFF;fillColor=#182E3E;" vertex="1" parent="1">
          <mxGeometry x="60" y="100" width="40" height="60" as="geometry" />
        </mxCell>
        <mxCell id="N24Z4VymImt8orXv-Vid-83" value="&lt;div&gt;mixer&lt;/div&gt;&lt;div&gt;(bronze/ oil)&lt;br&gt;&lt;/div&gt;" style="rounded=0;whiteSpace=wrap;html=1;strokeColor=#FFFFFF;fontColor=#FFFFFF;fillColor=#182E3E;" vertex="1" parent="1">
          <mxGeometry x="200" y="100" width="40" height="60" as="geometry" />
        </mxCell>
        <mxCell id="N24Z4VymImt8orXv-Vid-84" value="EBF" style="rounded=0;whiteSpace=wrap;html=1;strokeColor=#FFFFFF;fontColor=#FFFFFF;fillColor=#182E3E;" vertex="1" parent="1">
          <mxGeometry x="305" y="20" width="120" height="60" as="geometry" />
        </mxCell>
        <mxCell id="N24Z4VymImt8orXv-Vid-85" value="&lt;div&gt;mixer&lt;/div&gt;&lt;div&gt;(solder/ oil)&lt;br&gt;&lt;/div&gt;" style="rounded=0;whiteSpace=wrap;html=1;strokeColor=#FFFFFF;fontColor=#FFFFFF;fillColor=#182E3E;" vertex="1" parent="1">
          <mxGeometry x="345" y="100" width="40" height="60" as="geometry" />
        </mxCell>
      </root>
    </mxGraphModel>
  </diagram>
</mxfile>
